<svg width="22" height="21" viewBox="0 0 22 21" fill="none" xmlns="http://www.w3.org/2000/svg">
<path d="M11 -0.0045166C12.3924 -0.0045166 13.7277 0.548607 14.7123 1.53317C15.6969 2.51774 16.25 3.8531 16.25 5.24548C16.25 6.63787 15.6969 7.97323 14.7123 8.95779C13.7277 9.94236 12.3924 10.4955 11 10.4955C9.60761 10.4955 8.27225 9.94236 7.28769 8.95779C6.30312 7.97323 5.75 6.63787 5.75 5.24548C5.75 3.8531 6.30312 2.51774 7.28769 1.53317C8.27225 0.548607 9.60761 -0.0045166 11 -0.0045166ZM11 13.1205C16.8013 13.1205 21.5 15.4699 21.5 18.3705V20.9955H0.5V18.3705C0.5 15.4699 5.19875 13.1205 11 13.1205Z" fill="#AAA9A9"/>
</svg>
