<svg width="22" height="22" viewBox="0 0 22 22" fill="none" xmlns="http://www.w3.org/2000/svg">
<path d="M16.5554 10.9955H14.3332L12.111 16.5511L9.88878 5.43994L7.66656 10.9955H5.44434" stroke="#AAA9A9" stroke-width="2" stroke-linecap="round" stroke-linejoin="round"/>
<path d="M1 10.9955C1 6.28104 1 3.92437 2.46444 2.45993C3.92889 0.995483 6.28667 0.995483 11 0.995483C15.7144 0.995483 18.0711 0.995483 19.5356 2.45993C21 3.92437 21 6.28215 21 10.9955C21 15.7099 21 18.0666 19.5356 19.531C18.0711 20.9955 15.7133 20.9955 11 20.9955C6.28556 20.9955 3.92889 20.9955 2.46444 19.531C1 18.0666 1 15.7088 1 10.9955Z" stroke="#AAA9A9" stroke-width="2" stroke-linecap="round" stroke-linejoin="round"/>
</svg>
