<svg width="25" height="25" viewBox="0 0 25 25" fill="none" xmlns="http://www.w3.org/2000/svg">
<path d="M18.7499 13.5396H13.5416V18.7479C13.5416 19.0242 13.4318 19.2891 13.2365 19.4845C13.0411 19.6798 12.7762 19.7896 12.4999 19.7896C12.2237 19.7896 11.9587 19.6798 11.7633 19.4845C11.568 19.2891 11.4583 19.0242 11.4583 18.7479V13.5396H6.24992C5.97365 13.5396 5.7087 13.4298 5.51335 13.2345C5.318 13.0391 5.20825 12.7742 5.20825 12.4979C5.20825 12.2216 5.318 11.9567 5.51335 11.7613C5.7087 11.566 5.97365 11.4562 6.24992 11.4562H11.4583V6.2479C11.4583 5.97164 11.568 5.70668 11.7633 5.51133C11.9587 5.31598 12.2237 5.20624 12.4999 5.20624C12.7762 5.20624 13.0411 5.31598 13.2365 5.51133C13.4318 5.70668 13.5416 5.97164 13.5416 6.2479V11.4562H18.7499C19.0262 11.4562 19.2911 11.566 19.4865 11.7613C19.6818 11.9567 19.7916 12.2216 19.7916 12.4979C19.7916 12.7742 19.6818 13.0391 19.4865 13.2345C19.2911 13.4298 19.0262 13.5396 18.7499 13.5396Z" fill="white"/>
</svg>
