<svg width="15" height="15" viewBox="0 0 15 15" fill="none" xmlns="http://www.w3.org/2000/svg">
<path d="M8.33333 0C8.54573 0.00023559 8.75003 0.0815659 8.90447 0.227374C9.05892 0.373181 9.15186 0.572461 9.16431 0.784496C9.17676 0.99653 9.10777 1.20532 8.97145 1.36819C8.83512 1.53107 8.64175 1.63575 8.43083 1.66083L8.33333 1.66667H1.66667V13.3333H13.3333V6.66667C13.3336 6.45427 13.4149 6.24997 13.5607 6.09553C13.7065 5.94108 13.9058 5.84814 14.1178 5.83569C14.3299 5.82324 14.5386 5.89223 14.7015 6.02855C14.8644 6.16488 14.9691 6.35825 14.9942 6.56917L15 6.66667V13.3333C15.0001 13.7538 14.8413 14.1588 14.5554 14.4671C14.2695 14.7754 13.8776 14.9643 13.4583 14.9958L13.3333 15H1.66667C1.24619 15.0001 0.841195 14.8413 0.532877 14.5554C0.224559 14.2695 0.0357029 13.8776 0.00416685 13.4583L8.35567e-08 13.3333V1.66667C-0.000132983 1.24619 0.158672 0.841194 0.444581 0.532877C0.73049 0.224559 1.12237 0.0357028 1.54167 0.00416676L1.66667 0H8.33333ZM13.5358 0.285833C13.6858 0.136377 13.887 0.0496054 14.0987 0.0431432C14.3103 0.0366811 14.5164 0.111013 14.6752 0.251041C14.834 0.391069 14.9336 0.586293 14.9537 0.797062C14.9737 1.00783 14.9128 1.21834 14.7833 1.38583L14.7142 1.465L6.46417 9.71417C6.3142 9.86362 6.11297 9.95039 5.90135 9.95686C5.68972 9.96332 5.48357 9.88899 5.32477 9.74896C5.16596 9.60893 5.06641 9.41371 5.04633 9.20294C5.02626 8.99217 5.08716 8.78166 5.21667 8.61417L5.28583 8.53583L13.5358 0.285833Z" fill="#FFD003"/>
</svg>
