<svg width="36" height="36" viewBox="0 0 36 36" fill="none" xmlns="http://www.w3.org/2000/svg">
<circle cx="18" cy="18" r="18" fill="white"/>
<path d="M12.5556 25C12.1278 25 11.7617 24.8478 11.4573 24.5434C11.153 24.2391 11.0005 23.8727 11 23.4444V12.5556C11 12.1278 11.1524 11.7617 11.4573 11.4573C11.7622 11.153 12.1283 11.0005 12.5556 11H23.4444C23.8722 11 24.2386 11.1524 24.5434 11.4573C24.8483 11.7622 25.0005 12.1283 25 12.5556V23.4444C25 23.8722 24.8478 24.2386 24.5434 24.5434C24.2391 24.8483 23.8727 25.0005 23.4444 25H12.5556ZM12.5556 23.4444H23.4444V12.5556H12.5556V23.4444ZM13.3333 21.8889H22.6667L19.75 18L17.4167 21.1111L15.6667 18.7778L13.3333 21.8889Z" fill="black"/>
</svg>
