<svg width="20" height="23" viewBox="0 0 20 23" fill="none" xmlns="http://www.w3.org/2000/svg">
<path d="M10 22.6111C10.6881 22.612 11.3594 22.3985 11.9205 22.0002C12.4817 21.6019 12.9048 21.0387 13.1311 20.3889H6.86889C7.09518 21.0387 7.51831 21.6019 8.07945 22.0002C8.6406 22.3985 9.31189 22.612 10 22.6111ZM17.7778 14.3734V9.2778C17.7778 5.70336 15.35 2.69225 12.0611 1.78669C11.7356 0.966694 10.94 0.388916 10 0.388916C9.06 0.388916 8.26444 0.966694 7.93889 1.78669C4.65 2.69336 2.22222 5.70336 2.22222 9.2778V14.3734L0.325557 16.27C0.222176 16.373 0.14019 16.4955 0.0843171 16.6303C0.0284446 16.7651 -0.000210499 16.9096 1.16408e-06 17.0556V18.1667C1.16408e-06 18.4614 0.117064 18.744 0.325438 18.9524C0.533812 19.1607 0.816427 19.2778 1.11111 19.2778H18.8889C19.1836 19.2778 19.4662 19.1607 19.6746 18.9524C19.8829 18.744 20 18.4614 20 18.1667V17.0556C20.0002 16.9096 19.9716 16.7651 19.9157 16.6303C19.8598 16.4955 19.7778 16.373 19.6744 16.27L17.7778 14.3734Z" fill="black"/>
</svg>
