<svg width="15" height="15" viewBox="0 0 15 15" fill="none" xmlns="http://www.w3.org/2000/svg">
<circle cx="7.5" cy="7.5" r="7.5" fill="#D9D9D9"/>
<path d="M10.4507 5.84643C10.4974 5.80139 10.5346 5.74751 10.5603 5.68794C10.5859 5.62836 10.5994 5.56427 10.6 5.49942C10.6006 5.43457 10.5882 5.37024 10.5637 5.31021C10.5392 5.25017 10.5029 5.19562 10.4571 5.14973C10.4113 5.10385 10.3567 5.06756 10.2967 5.04297C10.2367 5.01838 10.1724 5.006 10.1076 5.00653C10.0427 5.00706 9.9786 5.02051 9.919 5.04607C9.8594 5.07164 9.80548 5.10883 9.76041 5.15546L7.80277 7.11245L5.84578 5.15546C5.80106 5.10747 5.74714 5.06898 5.68722 5.04228C5.62731 5.01559 5.56263 5.00123 5.49705 5.00008C5.43147 4.99892 5.36632 5.01098 5.30551 5.03555C5.24469 5.06011 5.18944 5.09668 5.14306 5.14306C5.09668 5.18944 5.06011 5.24469 5.03555 5.30551C5.01098 5.36632 4.99892 5.43147 5.00008 5.49705C5.00123 5.56263 5.01559 5.62731 5.04228 5.68722C5.06898 5.74714 5.10747 5.80106 5.15546 5.84578L7.11114 7.80342L5.15416 9.76041C5.06788 9.853 5.02091 9.97546 5.02314 10.102C5.02537 10.2285 5.07663 10.3493 5.16612 10.4388C5.25561 10.5282 5.37634 10.5795 5.50288 10.5817C5.62942 10.584 5.75188 10.537 5.84447 10.4507L7.80277 8.49374L9.75975 10.4514C9.85234 10.5377 9.97481 10.5846 10.1013 10.5824C10.2279 10.5802 10.3486 10.5289 10.4381 10.4394C10.5276 10.3499 10.5789 10.2292 10.5811 10.1026C10.5833 9.97611 10.5363 9.85365 10.4501 9.76106L8.49439 7.80342L10.4507 5.84643Z" fill="black"/>
</svg>
