<svg width="32" height="29" viewBox="0 0 32 29" fill="none" xmlns="http://www.w3.org/2000/svg">
<rect x="0.720215" width="30.392" height="29" rx="6" fill="#4BD763"/>
<path fill-rule="evenodd" clip-rule="evenodd" d="M15.9598 4C18.7516 4.00106 21.3719 5.03785 23.3422 6.91951C25.3126 8.80117 26.3971 11.3023 26.396 13.9623C26.3937 19.4512 21.7116 23.9173 15.9599 23.9173H15.9556C14.2089 23.9166 12.4928 23.4986 10.9684 22.7056L5.43604 24.0899L6.9166 18.9312C6.00336 17.4216 5.5228 15.7089 5.52354 13.9544C5.52584 8.46552 10.2075 4 15.9598 4ZM15.9564 22.236H15.9599C20.7409 22.236 24.6321 18.5242 24.634 13.9617C24.6348 11.7508 23.7334 9.67188 22.0957 8.10794C20.458 6.544 18.2801 5.68218 15.9633 5.68134C11.1786 5.68134 7.2874 9.39295 7.28553 13.955C7.28484 15.5184 7.74343 17.0411 8.61172 18.3585L8.81802 18.6715L7.94172 21.7248L11.2247 20.9034L11.5415 21.0827C12.8733 21.8366 14.3999 22.2354 15.9564 22.236Z" fill="white"/>
</svg>
