<svg width="32" height="29" viewBox="0 0 32 29" fill="none" xmlns="http://www.w3.org/2000/svg">
<rect x="0.720215" width="30.392" height="29" rx="6" fill="#4BA0FE"/>
<path fill-rule="evenodd" clip-rule="evenodd" d="M17.593 8.375C17.593 9.27246 16.8305 10 15.89 10C14.9494 10 14.187 9.27246 14.187 8.375C14.187 7.47754 14.9494 6.75 15.89 6.75C16.8305 6.75 17.593 7.47754 17.593 8.375ZM17.4882 20.05V11.5H13.0342V11.75H13.0866C13.7811 11.75 14.3442 12.2873 14.3442 12.95V20.05C14.3442 20.7127 13.7811 21.25 13.0866 21.25H13.0342V21.5H18.7982V21.25H18.7458C18.0512 21.25 17.4882 20.7127 17.4882 20.05Z" fill="white"/>
</svg>
