<svg width="32" height="29" viewBox="0 0 32 29" fill="none" xmlns="http://www.w3.org/2000/svg">
<rect x="0.720215" width="30.392" height="29" rx="6" fill="#FF2C55"/>
<path fill-rule="evenodd" clip-rule="evenodd" d="M22.7807 15.218C24.1443 13.1446 23.8353 11.1273 22.1209 9.75464C20.3474 8.33463 17.7032 8.55537 16.2151 10.2477L15.9082 10.5957L15.6014 10.2477C14.1132 8.55537 11.4691 8.33463 9.69556 9.75464C7.92203 11.1746 7.94611 13.015 9.17886 15.39C10.0007 16.9733 12.244 19.1825 15.9088 22.0175C19.581 18.8668 21.8716 16.6003 22.7807 15.218ZM15.8688 20.4329L15.213 19.9044C12.5609 17.7392 10.9167 16.0343 10.3058 14.8574C9.24057 12.8051 9.31847 11.6231 10.5039 10.6739C11.7454 9.67989 13.5963 9.8344 14.638 11.019L15.908 12.4598L17.1774 11.0202C18.2202 9.8344 20.0711 9.67989 21.3125 10.6739C22.5584 11.6714 22.7344 13.0308 21.7155 14.5802C21.0066 15.658 19.2631 17.4368 16.5197 19.8618L15.8688 20.4329Z" fill="white"/>
</svg>
