<svg width="32" height="29" viewBox="0 0 32 29" fill="none" xmlns="http://www.w3.org/2000/svg">
<rect x="0.720215" width="30.392" height="29" rx="6" fill="#FF3B2F"/>
<path fill-rule="evenodd" clip-rule="evenodd" d="M26.658 8C26.658 5.92893 24.8985 4.25 22.728 4.25C20.5575 4.25 18.798 5.92893 18.798 8C18.798 10.0711 20.5575 11.75 22.728 11.75C24.8985 11.75 26.658 10.0711 26.658 8ZM17.488 6.75H11.462L11.2528 6.7549C9.03482 6.85892 7.27002 8.6078 7.27002 10.75V18.75L7.27515 18.9496C7.38417 21.066 9.217 22.75 11.462 22.75H19.846L20.0552 22.7451C22.2732 22.6411 24.038 20.8922 24.038 18.75V13H22.99V18.75L22.9847 18.9263C22.8891 20.5011 21.5204 21.75 19.846 21.75H11.462L11.2773 21.7449C9.62689 21.6537 8.31802 20.3477 8.31802 18.75V10.75L8.32336 10.5737C8.41898 8.99892 9.78765 7.75 11.462 7.75H17.488V6.75Z" fill="white"/>
</svg>
