<svg width="32" height="29" viewBox="0 0 32 29" fill="none" xmlns="http://www.w3.org/2000/svg">
<rect x="0.720215" width="30.392" height="29" rx="6" fill="#397AFE"/>
<path fill-rule="evenodd" clip-rule="evenodd" d="M15.759 5.5C18.653 5.5 20.999 7.73858 20.999 10.5C20.999 12.4801 19.7927 14.1914 18.0431 15.0013L18.16 15.0004V23.1355C18.16 23.2415 18.1247 23.3442 18.0603 23.429L18.0066 23.489L16.8095 24.6313C16.4322 24.9913 15.8385 25.0195 15.4274 24.7154L15.3286 24.6324L14.0388 23.4057C13.8589 23.2303 13.8419 22.9606 13.9856 22.7673L14.047 22.6987L14.6858 22.1025C14.8696 21.9308 14.8929 21.6616 14.7539 21.4652L14.6941 21.3953L13.6775 20.4016C13.5095 20.2157 13.5101 19.9456 13.6663 19.7612L13.7321 19.6964L14.6615 18.9299C14.8434 18.7563 14.8636 18.4869 14.7221 18.292L14.6615 18.2228L13.8211 17.4209C13.7425 17.3459 13.6914 17.2495 13.6741 17.146L13.6676 17.0674L13.6677 15.0859C11.8145 14.3153 10.519 12.552 10.519 10.5C10.519 7.73858 12.8651 5.5 15.759 5.5ZM15.7852 7.5C14.9894 7.5 14.3442 8.11561 14.3442 8.875C14.3442 9.63439 14.9894 10.25 15.7852 10.25C16.5811 10.25 17.2262 9.63439 17.2262 8.875C17.2262 8.11561 16.5811 7.5 15.7852 7.5Z" fill="white"/>
</svg>
